<svg height="421pt" viewBox="0 -34 421.244 421" width="421pt" xmlns="http://www.w3.org/2000/svg"><path d="m6 6.121094h87v340h-87zm0 0" fill="#ef7f72"/><path d="m179 6.121094h87v340h-87zm0 0" fill="#e8383b"/><path d="m93 6.121094h86v340h-86zm0 0" fill="#e95947"/><path d="m266 352.121094h-260c-3.3125 0-6-2.683594-6-6v-340c0-3.3125 2.6875-6 6-6h260c3.3125 0 6 2.6875 6 6v340c0 3.316406-2.683594 6-6 6zm-254-12h248v-328h-248zm0 0" fill="#1c2d6b"/><path d="m105.730469 227.992188h-15.136719l9.960938 5.175781c11 5.714843 24.554687 19.269531 30.269531 30.269531l5.171875 9.960938v-15.136719c.003906-16.714844-13.546875-30.269531-30.265625-30.269531zm0 0" fill="#d3ba2a"/><path d="m95.769531 237.953125-5.171875-9.960937v15.136718c0 16.71875 13.550782 30.269532 30.269532 30.269532h15.136718l-9.960937-5.171876c-11.003907-5.71875-24.558594-19.269531-30.273438-30.273437zm0 0" fill="#ffeca7"/><path d="m100.554688 233.167969-9.957032-5.175781 5.171875 9.960937c5.714844 11.003906 19.269531 24.554687 30.269531 30.269531l9.960938 5.175782-5.175781-9.960938c-5.714844-11-19.265625-24.554688-30.269531-30.269531zm0 0" fill="#eee045"/><path d="m137 274.398438h-16.132812c-17.242188 0-31.273438-14.027344-31.273438-31.269532v-16.136718h16.132812c17.242188 0 31.273438 14.03125 31.273438 31.273437zm-45.40625-45.40625v14.136718c0 16.140625 13.128906 29.269532 29.273438 29.269532h14.132812v-14.132813c0-16.140625-13.128906-29.273437-29.273438-29.273437zm0 0" fill="#1c2d6b"/><path d="m136 279.398438h-15.132812c-20 0-36.273438-16.269532-36.273438-36.269532v-15.136718c0-3.3125 2.6875-6 6-6h15.132812c20 0 36.273438 16.273437 36.273438 36.273437v15.132813c0 3.3125-2.683594 6-6 6zm-39.40625-45.40625v9.136718c0 13.382813 10.886719 24.269532 24.273438 24.269532h9.132812v-9.132813c0-13.382813-10.886719-24.273437-24.273438-24.273437zm0 0" fill="#1c2d6b"/><path d="m166.273438 227.992188h15.132812l-9.957031 5.175781c-11.003907 5.714843-24.554688 19.269531-30.269531 30.269531l-5.175782 9.960938v-15.136719c-.003906-16.714844 13.550782-30.269531 30.269532-30.269531zm0 0" fill="#d3ba2a"/><path d="m176.230469 237.953125 5.175781-9.960937v15.136718c0 16.71875-13.550781 30.269532-30.269531 30.269532h-15.136719l9.960938-5.171876c11.003906-5.71875 24.554687-19.269531 30.269531-30.273437zm0 0" fill="#ffeca7"/><path d="m171.445312 233.167969 9.960938-5.175781-5.175781 9.960937c-5.714844 11.003906-19.265625 24.554687-30.269531 30.269531l-9.957032 5.175782 5.171875-9.960938c5.714844-11 19.269531-24.554688 30.269531-30.269531zm0 0" fill="#eee045"/><path d="m151.136719 274.398438h-16.132813v-16.132813c0-17.242187 14.027344-31.273437 31.269532-31.273437h16.132812v16.136718c0 17.242188-14.027344 31.269532-31.269531 31.269532zm-14.136719-2h14.132812c16.140626 0 29.273438-13.128907 29.273438-29.269532v-14.136718h-14.132812c-16.140626 0-29.273438 13.132812-29.273438 29.273437zm0 0" fill="#1c2d6b"/><path d="m151.136719 279.398438h-15.132813c-3.316406 0-6-2.683594-6-6v-15.132813c0-20 16.269532-36.273437 36.269532-36.273437h15.132812c3.316406 0 6 2.6875 6 6v15.136718c0 20-16.269531 36.269532-36.269531 36.269532zm-9.136719-12h9.132812c13.382813 0 24.273438-10.886719 24.273438-24.269532v-9.136718h-9.132812c-13.382813 0-24.273438 10.890624-24.273438 24.273437zm0 0" fill="#1c2d6b"/><path d="m125.296875 49.917969 10.703125-10.703125-3.382812 10.703125c-3.738282 11.820312-3.738282 30.988281 0 42.808593l3.382812 10.703126-10.703125-10.703126c-11.820313-11.820312-11.820313-30.988281 0-42.808593zm0 0" fill="#d3ba2a"/><path d="m139.382812 49.917969-3.382812-10.703125 10.703125 10.703125c11.820313 11.820312 11.820313 30.988281 0 42.808593l-10.703125 10.703126 3.382812-10.703126c3.738282-11.820312 3.738282-30.988281 0-42.808593zm0 0" fill="#ffeca7"/><path d="m132.617188 49.917969 3.382812-10.703125 3.382812 10.703125c3.738282 11.820312 3.738282 30.988281 0 42.808593l-3.382812 10.703126-3.382812-10.703126c-3.738282-11.820312-3.738282-30.988281 0-42.808593zm0 0" fill="#eee045"/><path d="m136 104.84375-11.410156-11.410156c-12.191406-12.191406-12.191406-32.03125 0-44.222656l11.410156-11.410157 11.410156 11.410157c12.191406 12.191406 12.191406 32.03125 0 44.222656zm0-64.214844-9.996094 9.996094c-11.410156 11.414062-11.410156 29.984375 0 41.398438l9.996094 9.996093 9.996094-9.996093c11.410156-11.414063 11.410156-29.984376 0-41.398438zm0 0" fill="#1c2d6b"/><path d="m136 109.429688c-1.535156 0-3.070312-.585938-4.242188-1.753907l-10.703124-10.703125c-14.140626-14.144531-14.140626-37.15625 0-51.292968l10.703124-10.707032c2.34375-2.339844 6.140626-2.339844 8.484376 0l10.703124 10.703125c14.140626 14.140625 14.140626 37.152344 0 51.292969l-10.703124 10.707031c-1.171876 1.167969-2.707032 1.753907-4.242188 1.753907zm0-61.726563-6.460938 6.457031c-9.460937 9.464844-9.460937 24.863282 0 34.324219l6.460938 6.460937 6.460938-6.460937c9.460937-9.460937 9.460937-24.859375 0-34.324219zm0 0" fill="#1c2d6b"/><path d="m105.730469 169.085938h-15.136719l9.960938 5.175781c11 5.714843 24.554687 19.265625 30.269531 30.269531l5.171875 9.957031v-15.132812c.003906-16.714844-13.546875-30.269531-30.265625-30.269531zm0 0" fill="#d3ba2a"/><path d="m95.769531 179.046875-5.171875-9.957031v15.132812c0 16.71875 13.550782 30.269532 30.269532 30.269532h15.136718l-9.960937-5.171876c-11.003907-5.71875-24.558594-19.269531-30.273438-30.273437zm0 0" fill="#ffeca7"/><path d="m100.554688 174.261719-9.957032-5.171875 5.171875 9.957031c5.714844 11.003906 19.269531 24.554687 30.269531 30.269531l9.960938 5.175782-5.175781-9.960938c-5.714844-11-19.265625-24.554688-30.269531-30.269531zm0 0" fill="#eee045"/><path d="m137 215.492188h-16.132812c-17.242188 0-31.273438-14.027344-31.273438-31.269532v-16.132812h16.132812c17.242188 0 31.273438 14.027344 31.273438 31.269531zm-45.40625-45.40625v14.136718c0 16.140625 13.128906 29.269532 29.273438 29.269532h14.132812v-14.136719c0-16.140625-13.128906-29.269531-29.273438-29.269531zm0 0" fill="#1c2d6b"/><path d="m136 220.492188h-15.132812c-20 0-36.273438-16.269532-36.273438-36.269532v-15.132812c0-3.316406 2.6875-6 6-6h15.132812c20 0 36.273438 16.269531 36.273438 36.269531v15.132813c0 3.3125-2.683594 6-6 6zm-39.40625-45.40625v9.136718c0 13.382813 10.886719 24.269532 24.273438 24.269532h9.132812v-9.136719c0-13.382813-10.886719-24.269531-24.273438-24.269531zm0 0" fill="#1c2d6b"/><path d="m166.273438 169.085938h15.132812l-9.957031 5.175781c-11.003907 5.714843-24.554688 19.265625-30.269531 30.269531l-5.175782 9.957031v-15.132812c-.003906-16.714844 13.550782-30.269531 30.269532-30.269531zm0 0" fill="#d3ba2a"/><path d="m176.230469 179.046875 5.175781-9.957031v15.132812c0 16.71875-13.550781 30.269532-30.269531 30.269532h-15.136719l9.960938-5.171876c11.003906-5.71875 24.554687-19.269531 30.269531-30.273437zm0 0" fill="#ffeca7"/><path d="m171.445312 174.261719 9.960938-5.171875-5.175781 9.957031c-5.714844 11.003906-19.265625 24.554687-30.269531 30.269531l-9.957032 5.175782 5.171875-9.960938c5.714844-11 19.269531-24.554688 30.269531-30.269531zm0 0" fill="#eee045"/><path d="m151.136719 215.492188h-16.132813v-16.132813c0-17.242187 14.027344-31.269531 31.269532-31.269531h16.132812v16.132812c0 17.242188-14.027344 31.269532-31.269531 31.269532zm-14.136719-2h14.132812c16.140626 0 29.273438-13.128907 29.273438-29.269532v-14.132812h-14.132812c-16.140626 0-29.273438 13.128906-29.273438 29.269531zm0 0" fill="#1c2d6b"/><path d="m151.136719 220.492188h-15.132813c-3.316406 0-6-2.683594-6-6v-15.132813c0-20 16.269532-36.269531 36.269532-36.269531h15.132812c3.316406 0 6 2.683594 6 6v15.132812c0 20-16.269531 36.269532-36.269531 36.269532zm-9.136719-12h9.132812c13.382813 0 24.273438-10.886719 24.273438-24.269532v-9.132812h-9.132812c-13.382813 0-24.273438 10.886718-24.273438 24.269531zm0 0" fill="#1c2d6b"/><path d="m105.730469 110.179688h-15.136719l9.960938 5.175781c11 5.714843 24.554687 19.265625 30.269531 30.269531l5.171875 9.960938v-15.136719c.003906-16.714844-13.546875-30.269531-30.265625-30.269531zm0 0" fill="#d3ba2a"/><path d="m95.769531 120.140625-5.171875-9.957031v15.132812c0 16.71875 13.550782 30.273438 30.269532 30.273438h15.136718l-9.960937-5.175782c-11.003907-5.71875-24.558594-19.269531-30.273438-30.273437zm0 0" fill="#ffeca7"/><path d="m100.554688 115.355469-9.957032-5.171875 5.171875 9.957031c5.714844 11.003906 19.269531 24.554687 30.269531 30.269531l9.960938 5.175782-5.175781-9.960938c-5.714844-11-19.265625-24.554688-30.269531-30.269531zm0 0" fill="#eee045"/><path d="m137 156.585938h-16.132812c-17.242188 0-31.273438-14.027344-31.273438-31.269532v-16.136718h16.132812c17.242188 0 31.273438 14.027343 31.273438 31.269531zm-45.40625-45.40625v14.136718c0 16.140625 13.128906 29.269532 29.273438 29.269532h14.132812v-14.136719c0-16.140625-13.128906-29.269531-29.273438-29.269531zm0 0" fill="#1c2d6b"/><path d="m136 161.585938h-15.132812c-20 0-36.273438-16.269532-36.273438-36.269532v-15.136718c0-3.3125 2.6875-6 6-6h15.132812c20 0 36.273438 16.269531 36.273438 36.269531v15.136719c0 3.3125-2.683594 6-6 6zm-39.40625-45.40625v9.136718c0 13.382813 10.886719 24.269532 24.273438 24.269532h9.132812v-9.136719c0-13.382813-10.886719-24.269531-24.273438-24.269531zm0 0" fill="#1c2d6b"/><path d="m166.273438 110.179688h15.132812l-9.957031 5.175781c-11.003907 5.714843-24.554688 19.265625-30.269531 30.269531l-5.175782 9.960938v-15.136719c-.003906-16.714844 13.550782-30.269531 30.269532-30.269531zm0 0" fill="#d3ba2a"/><path d="m176.230469 120.140625 5.175781-9.957031v15.132812c0 16.71875-13.550781 30.273438-30.269531 30.273438h-15.136719l9.960938-5.175782c11.003906-5.71875 24.554687-19.269531 30.269531-30.273437zm0 0" fill="#ffeca7"/><path d="m171.445312 115.355469 9.960938-5.171875-5.175781 9.957031c-5.714844 11.003906-19.265625 24.554687-30.269531 30.269531l-9.957032 5.175782 5.171875-9.960938c5.714844-11 19.269531-24.554688 30.269531-30.269531zm0 0" fill="#eee045"/><g fill="#1c2d6b"><path d="m151.136719 156.585938h-16.132813v-16.136719c0-17.242188 14.027344-31.269531 31.269532-31.269531h16.132812v16.136718c0 17.242188-14.027344 31.269532-31.269531 31.269532zm-14.136719-2h14.132812c16.140626 0 29.273438-13.128907 29.273438-29.269532v-14.136718h-14.132812c-16.140626 0-29.273438 13.128906-29.273438 29.269531zm0 0"/><path d="m151.136719 161.585938h-15.132813c-3.316406 0-6-2.6875-6-6v-15.136719c0-20 16.269532-36.269531 36.269532-36.269531h15.132812c3.316406 0 6 2.6875 6 6v15.136718c0 20-16.269531 36.269532-36.269531 36.269532zm-9.136719-12h9.132812c13.382813 0 24.273438-10.886719 24.273438-24.269532v-9.136718h-9.132812c-13.382813 0-24.273438 10.886718-24.273438 24.269531zm0 0"/><path d="m130 103.429688h12v190.21875h-12zm0 0"/></g><path d="m319.4375 234.878906-11-11 87.660156-87.660156c3.039063-3.039062 7.960938-3.039062 11 0 3.039063 3.039062 3.039063 7.960938 0 11zm0 0" fill="#eee045"/><path d="m319.4375 240.878906c-1.59375 0-3.121094-.632812-4.242188-1.757812l-11-11c-2.34375-2.34375-2.34375-6.144532 0-8.484375l87.660157-87.660157c2.601562-2.601562 6.058593-4.035156 9.742187-4.035156 3.679688 0 7.136719 1.433594 9.742188 4.035156 2.601562 2.597657 4.035156 6.058594 4.035156 9.742188 0 3.679688-1.433594 7.140625-4.035156 9.742188l-87.660156 87.660156c-1.125 1.125-2.652344 1.757812-4.242188 1.757812zm-2.515625-17 2.515625 2.515625 83.417969-83.417969c.429687-.429687.519531-.921874.519531-1.253906 0-.335937-.089844-.828125-.519531-1.257812-.433594-.429688-.921875-.519532-1.257813-.519532-.335937 0-.824218.089844-1.253906.519532zm0 0" fill="#1c2d6b"/><path d="m213.019531 322.789062h42v23.332032h-42zm0 0" fill="#89aadb"/><path d="m295.464844 322.789062h42v23.332032h-42zm0 0" fill="#4b67b0"/><path d="m255.019531 322.789062h40.445313v23.332032h-40.445313zm0 0" fill="#6287c5"/><path d="m337.464844 352.121094h-124.445313c-3.3125 0-6-2.683594-6-6v-23.332032c0-3.316406 2.6875-6 6-6h124.445313c3.316406 0 6 2.683594 6 6v23.332032c0 3.316406-2.683594 6-6 6zm-118.445313-12h112.445313v-11.332032h-112.445313zm0 0" fill="#1c2d6b"/><path d="m321.910156 197.296875c0 55.011719-10.578125 102.605469-25.964844 125.492187h41.40625c46.160157-22.890624 77.890626-70.480468 77.890626-125.492187zm0 0" fill="#4b67b0"/><path d="m135.242188 197.296875c0 55.011719 31.738281 102.605469 77.894531 125.492187h41.40625c-15.386719-22.890624-25.964844-70.480468-25.964844-125.492187zm0 0" fill="#89aadb"/><path d="m228.574219 197.296875c0 55.011719 10.578125 102.605469 25.964843 125.492187h41.40625c15.386719-22.890624 25.964844-70.480468 25.964844-125.492187zm0 0" fill="#6287c5"/><path d="m337.351562 328.789062h-124.214843c-.925781 0-1.839844-.214843-2.667969-.625-50.101562-24.84375-81.226562-74.988281-81.226562-130.867187 0-3.316406 2.6875-6 6-6h280c3.316406 0 6 2.683594 6 6 0 55.878906-31.121094 106.023437-81.222657 130.867187-.832031.410157-1.746093.625-2.667969.625zm-122.792968-12h121.371094c43.46875-22.101562 71.066406-65.097656 73.183593-113.496093h-267.738281c2.113281 48.398437 29.710938 91.394531 73.183594 113.496093zm0 0" fill="#1c2d6b"/></svg>