<svg id="Layer_1" enable-background="new 0 0 506.649 506.649" height="512" viewBox="0 0 506.649 506.649" width="512" xmlns="http://www.w3.org/2000/svg"><path d="m333.502 117.774c16.301-38.693 36.589-86.843 88.431-74.996 78.581 17.956 95.317 132.252 21.703 220.543-70.993 85.147-180.194 103.881-211.945 26.308-15.261-37.291 5.68-55.762 32.195-79.145 48.942-43.17 55.468-59.123 69.616-92.71z" fill="#dfb7a4"/><path d="m455.193 213.959c-72.522-63.967-78.903-85.448-101.327-138.286-8.151 13.112-14.515 28.215-20.365 42.101-14.348 34.063-20.957 49.79-69.616 92.709-26.515 23.383-47.456 41.854-32.195 79.145 5.196 12.694 12.707 23.198 22.326 31.219 58.828 49.049 169.262-8.539 214.634-94.883-4.309-3.937-8.822-7.918-13.457-12.005z" fill="#c69a85"/><path d="m306.759 166.933c-43.476 55.53-97.442 68.026-75.068 122.696 28.225 68.958 116.847 61.313 185.252 1.142-28.208-28.742-82.65-65.781-110.184-123.838z" fill="#9f7766"/><path d="m237.5 154.491c-22.97-54.522-51.556-122.369-124.606-105.675-110.727 25.301-134.309 186.354-30.581 310.762 100.035 119.979 253.907 146.376 298.647 37.07 21.504-52.546-8.003-78.573-45.365-111.522-68.964-60.829-78.159-83.308-98.095-130.635z" fill="#9f7766"/><path d="m335.595 285.126c-68.96-60.825-78.157-83.302-98.095-130.635-22.97-54.522-51.556-122.369-124.607-105.675-29.15 6.661-52.323 22.793-68.793 45.176-1.188 165.528 143.441 325.438 288.229 358.212 21.462-11.516 38.215-30.108 48.631-55.556 21.504-52.546-8.003-78.574-45.365-111.522z" fill="#c69a85"/><path d="m112.893 48.816c-8.307 1.898-16.212 4.584-23.674 8.033 61.857 115.611 170.47 216.51 284.61 266.55-9.666-13.072-23.322-25.122-38.234-38.273-68.96-60.825-78.157-83.302-98.095-130.635-22.97-54.522-51.556-122.369-124.607-105.675z" fill="#dfb7a4"/><path d="m217.417 110.323c-27.015 17.476-44.91 47.846-44.91 82.416 0 78.449 87.229 124.223 151.63 82.213-80.847-72.594-73.482-101.112-106.72-164.629z" fill="#dfb7a4"/><path d="m273.89 222.106c-28.857-37.362-33.574-68.023-56.473-111.783-18.51 11.974-32.735 30.003-39.86 51.287 22.29 31.536 56.639 53.933 96.333 60.496z" fill="#e0c8bf"/><path d="m425.498 27.181c-84.918-19.412-101.263 87.203-124.221 120.266-10.562 15.21-21.83 27.052-32.709 37.267-28.96-56.612-55.304-175.248-159.238-151.496-123.618 28.246-150.231 203.565-39.306 336.606 50.82 60.951 128.137 111.987 205.027 111.987 55.637 0 99.981-28.443 120.717-79.104 11.501-28.104 11.238-52.893-.795-75.741 60.401-37.246 106.819-103.456 111.344-174.436 3.798-59.586-25.121-112.624-80.819-125.349zm-129.34 243.606c-8.187 2.682-16.793 4.064-25.539 4.064-72.25 0-109.285-87.635-58.873-139.34 24.207 52.633 27.216 79.715 84.412 135.276zm69.994 119.8c-23.116 56.475-79.468 69.647-139.048 51.571-95.167-28.872-187.66-131.538-194.647-241.145-5.015-78.68 34.798-125.355 84.001-136.6 37.306-8.525 60.399 8.584 80.066 41.568-25.288 21.548-40.017 53.005-40.017 86.757 0 85.269 90.365 139.979 165.608 101.83 39.878 35.215 61.25 53.959 44.037 96.019zm9.812-89.48c-24.066-25.832-57.96-47.94-89.707-89.15 40.46-36.926 48.929-56.963 61.991-87.972 18.95-44.981 34.072-73.851 70.122-65.609 85.469 19.528 75.3 172.411-42.406 242.731z"/></svg>