<?xml version="1.0" standalone="no"?>
<!DOCTYPE svg PUBLIC "-//W3C//DTD SVG 20010904//EN"
 "http://www.w3.org/TR/2001/REC-SVG-20010904/DTD/svg10.dtd">
<svg version="1.0" xmlns="http://www.w3.org/2000/svg"
 width="272.000000pt" height="76.000000pt" viewBox="0 0 272.000000 76.000000"
 preserveAspectRatio="xMidYMid meet">
<metadata>
Created by potrace 1.10, written by Peter Selinger 2001-2011
</metadata>
<g transform="translate(0.000000,76.000000) scale(0.050000,-0.050000)"
fill="#c06c84" stroke="none">
<path d="M4538 1240 c-73 -77 -158 -282 -158 -382 0 -29 -14 -38 -60 -38 -54
0 -71 -18 -62 -67 2 -9 -21 2 -50 25 -148 116 -360 -31 -377 -261 -8 -100 -49
-137 -152 -137 -124 0 -174 143 -93 267 50 77 94 69 94 -17 0 -54 8 -70 36
-70 88 0 117 147 44 220 -121 121 -360 -58 -360 -269 0 -105 -157 -186 -258
-132 -60 32 -52 55 27 69 208 39 269 317 80 364 -159 40 -309 -116 -309 -320
0 -165 -119 -144 -222 39 -35 61 -80 119 -102 131 -35 19 -31 25 47 64 159 80
231 251 164 388 -107 220 -512 221 -721 3 -237 -247 -215 -785 34 -859 151
-46 220 29 249 269 11 92 21 114 44 105 17 -7 34 -12 38 -12 5 0 39 -61 77
-135 115 -227 236 -294 380 -209 l69 41 77 -40 c87 -45 220 -39 301 14 44 29
54 28 137 -12 104 -50 235 -42 311 20 44 35 47 35 103 -6 89 -67 241 -59 365
17 l98 61 50 -56 c66 -73 171 -91 267 -45 66 31 76 31 117 2 65 -46 112 -40
168 21 47 50 49 51 49 10 0 -57 96 -84 130 -36 13 18 30 111 38 208 7 96 15
196 18 222 4 47 -3 54 -109 103 -141 65 -326 -90 -365 -306 -40 -219 -252
-128 -252 107 l0 99 110 0 c84 0 120 10 151 41 54 54 34 79 -63 79 l-80 0 59
75 c196 250 69 564 -139 345z m122 -108 c0 -72 -42 -176 -96 -242 l-50 -60 15
100 c28 191 131 350 131 202z m-2038 -30 c110 -89 24 -302 -135 -334 l-63 -12
27 114 c32 137 22 170 -51 170 -69 0 -93 -28 -110 -130 -21 -126 -31 -150 -59
-150 -39 0 -73 -51 -59 -87 7 -18 25 -33 41 -33 32 0 21 -154 -16 -225 -108
-208 -176 294 -70 512 95 192 358 286 495 175z m1710 -402 c58 0 36 -190 -29
-245 -87 -73 -178 -105 -238 -83 -74 26 -77 61 -7 75 98 19 188 114 190 200 2
52 10 70 29 63 14 -5 39 -10 55 -10z m719 -164 c-36 -138 -71 -188 -119 -169
-77 29 -3 284 96 328 58 27 62 -5 23 -159z m-1815 111 c4 -27 -13 -58 -48 -85
-94 -74 -140 -40 -85 64 44 85 122 97 133 21z m889 28 c21 -63 -64 -155 -143
-155 -23 0 5 111 40 152 28 35 92 37 103 3z"/>
<path d="M560 1253 c-238 -52 -360 -235 -254 -381 59 -80 124 -34 124 87 0
127 24 147 203 171 l104 13 -18 -76 c-101 -430 -137 -799 -79 -817 103 -33
128 3 151 220 13 128 56 391 91 567 l22 107 196 -14 c204 -15 269 11 222 86
-40 65 -526 88 -762 37z"/>
<path d="M1161 791 c-64 -77 -104 -390 -61 -472 56 -103 160 -94 219 17 l39
74 1 -61 c1 -69 32 -109 84 -109 52 0 70 50 84 230 7 88 19 198 26 245 10 69
6 87 -23 98 -59 22 -91 -16 -157 -191 -103 -274 -179 -282 -126 -14 18 93 33
179 33 191 0 31 -91 26 -119 -8z"/>
</g>
</svg>
