<svg height="512" viewBox="0 0 60 60" width="512" xmlns="http://www.w3.org/2000/svg"><g id="038---Milk-And-Eggs" fill="none"><g id="Icons" transform="translate(1 1)"><path id="Shape" d="m46 5.6v-3.6c0-1.1045695.8954305-2 2-2s2 .8954305 2 2v3.6l-.75-.6c-.6455107-.51153148-1.5385998-.57504004-2.25-.16-.3584366.21848357-.6935227.47314902-1 .76z" fill="#0377bc"/><path id="Shape" d="m58 12v44c0 1.1045695-.8954305 2-2 2h-16c-1.1045695 0-2-.8954305-2-2v-44z" fill="#0377bc"/><path id="Shape" d="m46 5.6v-3.6c.003119-.48269702.1807078-.94797975.5-1.31.3192922.36202025.496881.82730298.5 1.31v2.84c-.3584366.21848357-.6935227.47314902-1 .76z" fill="#02a9f4"/><path id="Shape" d="m55 12v44c0 1.1045695-.8954305 2-2 2h-13c-1.1045695 0-2-.8954305-2-2v-44z" fill="#02a9f4"/><path id="Shape" d="m58 12h-20l8.75-7c.7306656-.58500067 1.7693344-.58500067 2.5 0z" fill="#00838f"/><path id="Shape" d="m55 12h-17l8.5-6.8z" fill="#00bcd4"/><path id="Shape" d="m47.08 24.49c.2063773-.3057208.5511412-.4889525.92-.4889525s.7136227.1832317.92.4889525c1.0915827 1.6606003 1.8019184 3.5423067 2.08 5.51 0 1.6568542-1.3431458 3-3 3s-3-1.3431458-3-3c.2780816-1.9676933.9884173-3.8493997 2.08-5.51z" fill="#f5f5f5"/><path id="Rectangle-path" d="m38 40h20v14h-20z" fill="#283593"/><path id="Rectangle-path" d="m38 40h17v14h-17z" fill="#3f51b5"/><path id="Shape" d="m19 46.15c0 8-6 12.76-11 11.68-3.87-.87-8-5-8-11.68 0-8.57 4.13-14.61 8-15.89.48272576-.1669186.98925732-.2547174 1.5-.26 4.22 0 9.5 6.46 9.5 16.15z" fill="#dfc49c"/><path id="Shape" d="m16 46.15c0 6.67-4.13 10.85-8 11.68-3.87-.87-8-5-8-11.68 0-8.57 4.13-14.61 8-15.89 3.87 1.28 8 7.32 8 15.89z" fill="#ffe0b2"/><path id="Shape" d="m38 46.15c0 8-6 12.76-11 11.68-3.87-.87-8-5-8-11.68 0-8.57 4.13-14.61 8-15.89.4827258-.1669186.9892573-.2547174 1.5-.26 4.22 0 9.5 6.46 9.5 16.15z" fill="#dfc49c"/><path id="Shape" d="m35 46.15c0 6.67-4.13 10.81-8 11.68-3.87-.87-8-5-8-11.68 0-8.57 4.13-14.61 8-15.89 3.87 1.28 8 7.32 8 15.89z" fill="#ffe0b2"/></g><g id="Layer_9" fill="#000"><path id="Shape" d="m52 6.12v-3.12c0-1.65685425-1.3431458-3-3-3s-3 1.34314575-3 3v3.12l-7.62 6.1c-.56.44-.38.11-.38 25.09-2.06-4.54-5.39-7.31-8.5-7.31-3.69 0-7.69 3.89-9.5 10-1.81-6.14-5.81-10-9.5-10-4.97 0-10.5 7-10.5 17.15 0 7.69 5.43 12.85 10.5 12.85 3.76 0 7.7-2.84 9.5-7.43 1.8 4.59 5.74 7.43 9.5 7.43 3.16 0 6.46-2 8.5-5.38v2.38c0 1.6568542 1.3431458 3 3 3h16c1.6568542 0 3-1.3431458 3-3 0-47.17 0-44.09-.09-44.41s-.06-.19-7.91-6.47zm-12 7.88h18v26h-18zm8.38-7.22c.3634448-.28719759.8765552-.28719759 1.24 0l6.53 5.22h-14.3zm.62-4.78c.5522847 0 1 .44771525 1 1v1.73c-.6470418-.22876383-1.3529582-.22876383-2 0v-1.73c0-.55228475.4477153-1 1-1zm-38.5 56c-3.56 0-8.5-3.77-8.5-10.85 0-9.25 5-15.15 8.5-15.15s8.5 5.9 8.5 15.15c0 7.08-4.94 10.85-8.5 10.85zm19 0c-3.56 0-8.5-3.77-8.5-10.85 0-9.25 5-15.15 8.5-15.15s8.5 5.9 8.5 15.15c0 7.08-4.94 10.85-8.5 10.85zm10.5-16h18v12h-18zm17 16h-16c-.5522847 0-1-.4477153-1-1v-1h18v1c0 .5522847-.4477153 1-1 1z"/><path id="Shape" d="m50.74 24.92c-.3934729-.5736314-1.0443895-.9164758-1.74-.9164758s-1.3465271.3428444-1.74.9164758c-1.2129764 1.8248298-1.9865468 3.9059396-2.26 6.08 0 2.209139 1.790861 4 4 4s4-1.790861 4-4c-.2734532-2.1740604-1.0470236-4.2551702-2.26-6.08zm-1.74 8.08c-1.1045695 0-2-.8954305-2-2 .2778173-1.7669431.9289405-3.454409 1.91-4.95.0561938-.030224.1238062-.030224.18 0 .9810595 1.495591 1.6321827 3.1830569 1.91 4.95 0 1.1045695-.8954305 2-2 2z"/><path id="Shape" d="m43 47h12c.5522847 0 1-.4477153 1-1s-.4477153-1-1-1h-12c-.5522847 0-1 .4477153-1 1s.4477153 1 1 1z"/><path id="Shape" d="m52 49h-6c-.5522847 0-1 .4477153-1 1s.4477153 1 1 1h6c.5522847 0 1-.4477153 1-1s-.4477153-1-1-1z"/><path id="Shape" d="m8.11 35.29c-1.45561159 1.523879-2.52241306 3.3762031-3.11 5.4-.09909663.254238-.08999741.5379292.02518782.7852942s.3264514.4369175.58481218.5247058c.25324583.0851138.53002014.0653517.76860401-.0548795.23858387-.1202313.41913657-.3309332.50139599-.5851205.5126905-1.7145664 1.41250992-3.2883951 2.63-4.6.28696355-.2424029.41387472-.6251781.32857385-.9910073s-.36842332-.6529963-.73300587-.7434774c-.36458254-.0904811-.74911923.0309882-.99556798.3144847z"/><path id="Shape" d="m27.11 35.29c-1.4556116 1.523879-2.5224131 3.3762031-3.11 5.4-.0990966.254238-.0899974.5379292.0251878.7852942.1151853.247365.3264514.4369175.5848122.5247058.2532458.0851138.5300201.0653517.768604-.0548795.2385839-.1202313.4191366-.3309332.501396-.5851205.5126905-1.7145664 1.4125099-3.2883951 2.63-4.6.3427927-.3943235.3242342-.9860783-.0425939-1.3581468-.3668281-.3720686-.9582602-.3990185-1.3574061-.0618532z"/></g></g></svg>