<?xml version="1.0" standalone="no"?>
<!DOCTYPE svg PUBLIC "-//W3C//DTD SVG 20010904//EN"
 "http://www.w3.org/TR/2001/REC-SVG-20010904/DTD/svg10.dtd">
<svg version="1.0" xmlns="http://www.w3.org/2000/svg"
 width="300.000000pt" height="87.000000pt" viewBox="0 0 300.000000 87.000000"
 preserveAspectRatio="xMidYMid meet">
<metadata>
Created by potrace 1.10, written by Peter Selinger 2001-2011
</metadata>
<g transform="translate(0.000000,87.000000) scale(0.050000,-0.050000)"
fill="#c06c84" stroke="none">
<path d="M297 1520 c-90 -48 -157 -130 -157 -192 0 -74 29 -71 111 13 152 156
190 101 129 -182 -65 -296 -20 -419 154 -419 115 0 286 127 286 212 0 15 7 28
17 28 15 0 12 -77 -8 -175 -6 -25 -23 -45 -40 -45 -225 0 -470 -321 -342 -448
155 -156 404 -16 475 268 43 170 134 209 233 99 107 -120 314 -66 354 93 18
73 91 65 91 -10 0 -169 132 -211 208 -66 l29 54 14 -56 c22 -89 122 -113 204
-48 18 13 37 9 62 -14 56 -50 98 -20 132 95 61 206 144 291 155 158 8 -99 97
-109 164 -18 l42 56 -43 35 c-30 24 -40 50 -33 85 29 153 -155 104 -253 -67
-64 -112 -76 -94 -37 53 28 104 20 118 -51 100 -59 -15 -93 -102 -93 -241 0
-61 -13 -93 -50 -128 -84 -79 -104 -31 -64 155 43 199 43 225 -4 225 -49 0
-67 -26 -121 -180 -99 -283 -186 -260 -110 29 35 136 19 171 -60 135 -37 -17
-54 -44 -63 -102 -14 -85 -81 -130 -100 -65 -75 251 -372 225 -426 -38 -10
-51 -26 -70 -72 -82 -75 -20 -74 -53 -15 327 54 353 50 396 -35 396 -54 0 -72
-37 -98 -198 -39 -245 -161 -470 -262 -483 -123 -16 -135 30 -81 295 70 343
-16 465 -242 346z m1043 -546 c0 -26 13 -64 29 -85 41 -54 38 -96 -10 -140
-78 -71 -155 44 -118 175 28 96 99 132 99 50z m-550 -389 c-27 -146 -123 -243
-212 -214 -92 29 -36 158 104 238 116 66 125 65 108 -24z"/>
<path d="M3240 1521 c-351 -121 -475 -741 -177 -887 145 -71 216 -7 247 222
19 145 58 132 161 -55 108 -196 222 -244 357 -150 31 22 45 21 86 -6 64 -41
199 -40 281 2 61 32 68 32 117 0 65 -43 199 -43 281 -1 55 29 66 29 87 3 14
-16 42 -29 62 -29 47 0 47 5 -4 -146 -75 -221 -26 -395 102 -364 94 23 152
148 178 384 13 125 90 176 192 130 52 -24 141 -9 172 28 26 32 78 38 78 9 0
-109 318 -42 363 76 34 89 -19 116 -86 43 -45 -49 -71 -61 -120 -56 -89 8 -93
48 -9 75 205 68 226 329 27 329 -134 0 -235 -114 -243 -276 -4 -65 -15 -88
-57 -111 -71 -40 -89 -15 -49 70 98 204 -38 410 -191 289 -50 -39 -51 -39 -61
0 -11 44 -73 53 -110 16 -14 -14 -24 -81 -24 -159 0 -114 -7 -143 -49 -191
-96 -111 -115 36 -39 307 9 33 1 47 -32 57 -68 21 -100 -27 -128 -191 -21
-129 -32 -152 -83 -183 -151 -92 -267 38 -183 204 36 72 106 68 98 -5 -6 -45
1 -55 35 -55 59 0 95 84 65 150 -80 174 -317 54 -355 -178 -17 -104 -37 -128
-119 -143 -152 -29 -193 29 -59 80 223 86 174 381 -51 313 -114 -34 -182 -131
-186 -266 -5 -137 -93 -158 -164 -38 -22 38 -67 97 -100 133 l-61 64 85 45
c368 195 74 601 -334 461z m282 -132 c76 -70 42 -225 -62 -279 -104 -54 -116
-44 -93 81 23 126 5 161 -74 142 -35 -9 -53 -31 -61 -73 -7 -33 -17 -86 -23
-118 -7 -35 -27 -62 -50 -68 -46 -12 -53 -85 -9 -101 29 -11 28 -40 -2 -189
-27 -131 -127 9 -128 177 -1 349 303 607 502 428z m558 -418 c0 -48 -64 -111
-114 -111 -36 0 -33 62 5 116 43 61 109 59 109 -5z m1100 -39 c0 -86 -72 -212
-122 -212 -33 0 -21 224 15 263 62 69 107 48 107 -51z m480 53 c-1 -54 -74
-125 -129 -125 -23 0 -10 72 20 116 38 53 109 59 109 9z m-764 -500 c-17 -185
-40 -265 -78 -265 -31 0 -14 175 30 325 49 164 66 142 48 -60z"/>
<path d="M4710 1348 c-39 -40 -32 -106 14 -135 51 -32 144 7 153 64 13 93 -97
140 -167 71z"/>
</g>
</svg>
